<svg width="21" height="13" viewBox="0 0 21 13" fill="none" xmlns="http://www.w3.org/2000/svg">
<path d="M20 6C19.7348 6 19.4804 6.10536 19.2929 6.2929C19.1054 6.48043 19 6.73479 19 7V9.59L12.71 3.29C12.617 3.19627 12.5064 3.12188 12.3846 3.07111C12.2627 3.02034 12.132 2.9942 12 2.9942C11.868 2.9942 11.7373 3.02034 11.6154 3.07111C11.4936 3.12188 11.383 3.19627 11.29 3.29L8 6.59L2.71 1.29C2.5217 1.1017 2.2663 0.995911 2 0.995911C1.7337 0.995911 1.4783 1.1017 1.29 1.29C1.1017 1.47831 0.995909 1.7337 0.995909 2C0.995909 2.2663 1.1017 2.5217 1.29 2.71L7.29 8.71C7.38296 8.80373 7.49356 8.87812 7.61542 8.92889C7.73728 8.97966 7.86799 9.0058 8 9.0058C8.13201 9.0058 8.26272 8.97966 8.38458 8.92889C8.50644 8.87812 8.61704 8.80373 8.71 8.71L12 5.41L17.59 11H15C14.7348 11 14.4804 11.1054 14.2929 11.2929C14.1054 11.4804 14 11.7348 14 12C14 12.2652 14.1054 12.5196 14.2929 12.7071C14.4804 12.8946 14.7348 13 15 13H20C20.1307 12.9984 20.2598 12.9712 20.38 12.92C20.6243 12.8185 20.8185 12.6244 20.92 12.38C20.9712 12.2598 20.9984 12.1307 21 12V7C21 6.73479 20.8946 6.48043 20.7071 6.2929C20.5196 6.10536 20.2652 6 20 6Z" fill="red"/>
</svg>
